<?xml version="1.0" encoding="UTF-8"?>
<svg id="Logo" xmlns="http://www.w3.org/2000/svg" viewBox="0 0 640 182.86">
  <defs>
    <style>
      .cls-1 {
        fill: #231f20;
        stroke: #fff;
        stroke-miterlimit: 10;
        stroke-width: 2px;
      }

      .cls-2 {
        fill: #fff;
        stroke-width: 0px;
      }
    </style>
  </defs>
  <rect class="cls-1" x="175.56" y="20.76" width="294.95" height="147.47" rx="73.74" ry="73.74"/>
  <g>
    <path class="cls-2" d="M219.8,106.18c0-10.23,8.01-15.77,26.92-17.82-.34-3.92-2.39-6.22-7.33-6.22-2.55,0-5.17.68-8.07,1.93-2.7,1.17-5.85,0-7.23-2.6h0c-1.53-2.88-.34-6.49,2.62-7.85,4.87-2.23,10.04-3.59,15.57-3.59,12.52,0,19.59,6.99,19.59,22.16v23.86c0,2.03-1.65,3.68-3.68,3.68h-5.69c-1.74,0-3.24-1.22-3.6-2.92l-.41-1.94h-.43c-4,3.58-8.52,6.05-13.88,6.05-8.94,0-14.39-6.65-14.39-14.75ZM246.72,105.32v-7.76c-9.45,1.19-12.52,4.01-12.52,7.42,0,2.81,2.04,4.18,5.2,4.18s5.11-1.45,7.33-3.84Z"/>
    <path class="cls-2" d="M272.69,59.38c0-4.69,3.32-7.76,8.43-7.76s8.43,3.07,8.43,7.76-3.41,7.84-8.43,7.84-8.43-3.07-8.43-7.84ZM281.13,71.23h0c4.19,0,7.58,3.39,7.58,7.58v33.34c0,4.19-3.39,7.58-7.58,7.58h0c-4.19,0-7.58-3.39-7.58-7.58v-33.34c0-4.19,3.39-7.58,7.58-7.58Z"/>
    <path class="cls-2" d="M300.89,71.23h12.35l1.11,4.69h.26c3.83-3.41,8.6-5.88,13.63-5.88,11.58,0,18.91,9.72,18.91,24.64,0,16.71-9.96,26.26-20.36,26.26-4.09,0-8.01-1.79-11.24-5.03l.51,7.59v13.89h-15.16v-66.15ZM331.55,94.92c0-8.52-2.47-12.53-7.84-12.53-2.81,0-5.11,1.28-7.67,4.09v19.18c2.38,2.13,4.85,2.81,7.15,2.81,4.6,0,8.35-3.84,8.35-13.55Z"/>
    <path class="cls-2" d="M356.93,103.96v-52.34h15.16v52.85c0,3.24,1.45,4.18,2.64,4.18.51,0,.85,0,1.7-.17l1.79,11.17c-1.62.68-4.09,1.28-7.49,1.28-10.39,0-13.8-6.82-13.8-16.96Z"/>
    <path class="cls-2" d="M382.48,95.44c0-15.69,11.33-25.4,23-25.4,13.97,0,20.78,10.14,20.78,23.36,0,2.73-.34,5.37-.68,6.56h-28.45c1.36,6.65,5.96,9.38,12.09,9.38,3.49,0,6.73-1.02,10.22-3.07l5.03,9.12c-5.03,3.58-11.67,5.54-17.29,5.54-13.97,0-24.7-9.38-24.7-25.49ZM413.4,89.98c0-4.77-2.13-8.35-7.67-8.35-4.17,0-7.84,2.64-8.86,8.35h16.52Z"/>
  </g>
</svg>